<svg xmlns="http://www.w3.org/2000/svg" width="500" height="500" version="1.0" viewBox="0 0 375 375"><defs><clipPath id="a"><path d="M97 176h142v177.973H97Zm0 0"/></clipPath><clipPath id="b"><path d="M125 176h113v177.973H125Zm0 0"/></clipPath></defs><path fill="#064349" d="M235.691 171.426c-5.441-14.27-4.98-33.047-14.007-42.16-27.082-27.332-65.075-42.098-82.618-108.153 0 0-10.07 12.325-15.078 34.133-5.425 29.156 20.864 61.469 37.637 78.668.172-.512.656-.96 1.332-.863 9.414 1.34 14.914 10.683 18.32 18.652 5.047 11.809 7.418 24.848 8.43 37.598.938 11.855.5 22.844-4.977 33.637-.32.62-.656 1.23-.992 1.843 40.524 16.77 64.551-20.332 51.953-53.355"/><path fill="#43c89e" d="M212.945 133.242c-51.304-38.758-102.863-2.613-172.922-68.11 0 0-2.57 16.204 5.614 38.872 15.336 42.504 96.129 52.867 96.129 52.867-35.418 10.809-62.618 2.863-78.36-4.871a160.088 160.088 0 0 0 4.504 7.895c37.399 46.535 102.95 30.73 102.95 30.73-14.829 11.633-34.712 15.867-53.954 16.605 15.137 8.11 33.18 13.743 54.867 15.407 66.594 5.105 75.024-63.825 41.172-89.395"/><g clip-path="url(#a)"><path fill="#43c89e" d="M97.582 353.992c41.992-20.68 64.059-44.945 76.523-63.898 9.165-13.926 12.055-23.336 29.485-48.66 14.676-21.32 34.937-47.055 34.937-47.055l-29.117-18.3L97.582 353.991"/></g><g clip-path="url(#b)"><path fill="#43c89e" d="M125.262 353.992c44.59-25.277 65.8-54.996 75.445-71.414 7.352-12.508 12.578-25.113 15.352-31.793a327.899 327.899 0 0 0 21.035-74.707L125.262 353.992"/></g><path fill="#43c89e" d="m232.11 151.367-2.52 3.75c-10.13 2.434-19.434 8.43-25.793 17.692a43.514 43.514 0 0 0-7.633 23.152c-2.324.637-5.887 2.004-7.871 5.207-2.328 3.773-.98 8.293 1.34 13.36l-19.66 29.222 24.972-18.02a28.537 28.537 0 0 1 2.215 6.73c5.29 27.056-31.308 53.313-36.258 56.786 52.293-9.117 90.153-30.09 104.395-48.473 8.355-10.777 14.738-19.84 17.48-31.52 1.754-7.495 2.164-11.343 1.387-22.425-.23-3.348.598-6.683 2.305-9.574l5.465-9.277 6.234-34.196c1.816-16.207-37.309-25.61-66.059 17.586"/><path fill="#fff" d="M282.777 141.129c-1.062-1.668-4.629-6.781-10.722-7.996-1.118-.223-3.168-.602-5.524.199-.511.176-5.254 1.879-5.945 6.23-.367 2.297.473 4.844 2.184 6.438 4.671 4.344 13.855-.27 14.53-.613a19.478 19.478 0 0 0 5.477-4.258"/><path d="M266.36 141.754a4.407 4.407 0 0 1 3.109-5.399 4.408 4.408 0 0 1 5.398 3.106 4.406 4.406 0 1 1-8.508 2.293"/><path fill="#fff" d="M304.207 171.316c.914-1.054 7.39-8.796 5.61-19.687-1.876-11.488-11.36-16.781-12.465-17.371-3.829 1.219-6.414 3.054-8.086 4.562-11.329 10.243-6.602 29.133-6.313 30.215 1.219.453 4.317 1.414 8.074.485 5.118-1.266 7.735-5.114 8.32-6.028a13.51 13.51 0 0 1 2.188 2.153c1.707 2.12 2.38 4.316 2.672 5.671"/><path fill="#43c89e" d="M285.816 166.352c1.192.23 2.727.32 4.407-.094 3.597-.89 5.605-3.5 6.3-4.578a3.332 3.332 0 0 1 2.258-1.496 3.337 3.337 0 0 1 2.63.656 16.782 16.782 0 0 1 3.32 3.45c1.406-3.005 2.578-7.2 1.769-12.118-1.297-7.945-6.934-12.504-9.516-14.215-2.074.824-3.906 1.95-5.464 3.356-8.036 7.261-6.575 20.269-5.704 25.039Zm18.391 8.324a3.54 3.54 0 0 1-.832-.102 3.361 3.361 0 0 1-2.453-2.55 10.31 10.31 0 0 0-1.434-3.485c-1.75 1.668-4.27 3.406-7.648 4.242-4.192 1.035-7.781.25-10.055-.597a3.337 3.337 0 0 1-2.082-2.286c-.234-.886-5.617-21.886 7.309-33.574 2.617-2.36 5.75-4.137 9.316-5.273a3.373 3.373 0 0 1 2.61.238c2.007 1.078 12.125 7.078 14.199 19.793 1.972 12.059-4.977 20.805-6.387 22.434a3.36 3.36 0 0 1-2.543 1.16"/><path fill="#fff" d="M284.672 144.266c.578 9.617 7.582 13.289 14.676 19.226"/><path fill="#43c89e" d="M299.348 166.86a3.345 3.345 0 0 1-2.157-.786 151.066 151.066 0 0 0-3.421-2.75c-5.84-4.59-11.88-9.336-12.454-18.855a3.356 3.356 0 0 1 3.157-3.555 3.367 3.367 0 0 1 3.554 3.152c.387 6.504 4.38 9.637 9.895 13.97 1.172.921 2.375 1.866 3.586 2.882a3.358 3.358 0 0 1 .414 4.734 3.35 3.35 0 0 1-2.574 1.207"/></svg>